<svg width="20" height="20" viewBox="0 0 20 20" fill="none" xmlns="http://www.w3.org/2000/svg">
<path d="M11.0008 5.99401C10.4489 5.99401 10.0009 5.56244 10.0009 5.005V0.989012C10.0009 0.503496 10.3669 0.0999012 10.8248 0.0159855L11.0008 0C11.5528 0 12.0007 0.431568 12.0007 0.989012V5.005C11.9983 5.23767 11.9147 5.46219 11.7642 5.63983C11.6138 5.81747 11.406 5.93708 11.1768 5.97802L11.0008 5.99401ZM18.0002 1.01898C18.0002 0.519482 18.3661 0.101898 18.8241 0.0159855L19.0001 0C19.552 0 20 0.455545 20 1.01898L20 18.961C20.0007 19.1978 19.9188 19.4275 19.7685 19.6105C19.6181 19.7935 19.4087 19.9185 19.1761 19.964L19.0001 19.98C18.4481 19.98 18.0002 19.5245 18.0002 18.961V10.995L2.41757 10.995L6.5372 15.1109C6.6327 15.203 6.70888 15.3133 6.76128 15.4352C6.81369 15.557 6.84127 15.6881 6.84243 15.8208C6.84358 15.9534 6.81828 16.085 6.768 16.2077C6.71773 16.3305 6.64348 16.4421 6.5496 16.5359C6.45571 16.6297 6.34407 16.7038 6.22118 16.7541C6.0983 16.8043 5.96663 16.8296 5.83386 16.8284C5.7011 16.8273 5.56989 16.7997 5.4479 16.7474C5.3259 16.695 5.21557 16.6189 5.12333 16.5235L0.88171 12.2877C0.589878 11.997 0.361132 11.6493 0.209741 11.2664C0.0583497 10.8834 -0.0124397 10.4734 0.00178846 10.0619L0.00178846 9.996C0.00178846 9.91608 0.0111208 9.8375 0.0297858 9.76024C0.115778 9.13287 0.399753 8.52947 0.88171 8.04795L5.12133 3.80819C5.30909 3.62061 5.56374 3.51522 5.82927 3.51522C6.09479 3.51522 6.34945 3.62061 6.5372 3.80819C6.72496 3.99578 6.83044 4.2502 6.83044 4.51548C6.83044 4.78077 6.72496 5.03519 6.5372 5.22278L2.75754 8.997L18.0002 8.997L18.0002 1.01898ZM11.0008 20C10.4489 20 10.0009 19.5684 10.0009 19.011V14.995C10.0009 14.5095 10.3669 14.1059 10.8248 14.022L11.0008 14.006C11.5528 14.006 12.0007 14.4376 12.0007 14.995V19.011C11.9983 19.2437 11.9147 19.4682 11.7642 19.6458C11.6138 19.8235 11.406 19.9431 11.1768 19.984L11.0008 20Z" fill="#ECECEC"/>
</svg>
