<svg width="26" height="25" viewBox="0 0 26 25" fill="none" xmlns="http://www.w3.org/2000/svg">
<path d="M9.22997 23.4667V19.6445C9.22997 18.6688 10.0686 17.8779 11.1032 17.8779H14.885C15.3818 17.8779 15.8583 18.064 16.2096 18.3953C16.5609 18.7266 16.7582 19.176 16.7582 19.6445V23.4667C16.7551 23.8723 16.9238 24.2623 17.2268 24.5502C17.5298 24.8381 17.9422 25 18.3723 25H20.9524C22.1574 25.0029 23.3141 24.5535 24.1673 23.751C25.0205 22.9485 25.5 21.8587 25.5 20.7223V9.83357C25.5 8.91557 25.0685 8.0448 24.3219 7.45583L15.5448 0.844836C14.018 -0.314298 11.8304 -0.276872 10.3492 0.933723L1.77238 7.45583C0.990448 8.02744 0.523095 8.90079 0.5 9.83357V20.7112C0.5 23.0798 2.53603 25 5.0476 25H7.5688C8.46214 25 9.18815 24.3203 9.19463 23.4778L9.22997 23.4667Z" fill="#ECECEC"/>
</svg>
