<svg width="26" height="31" viewBox="0 0 26 31" fill="none" xmlns="http://www.w3.org/2000/svg">
<g clip-path="url(#clip0_124_117)">
<path d="M9.26134 21.2094C9.40353 21.3144 9.48779 21.4824 9.48779 21.6592V27.5403C9.48779 28.3139 8.73296 28.9405 7.80258 28.9405C6.8722 28.9405 6.11737 28.3139 6.11737 27.5403C6.11737 26.7666 6.8722 26.14 7.80258 26.14C7.99919 26.14 8.18877 26.168 8.36432 26.2205V23.6721L3.87042 25.0163V28.6605C3.87042 29.4341 3.11559 30.0607 2.18521 30.0607C1.25483 30.0607 0.5 29.4341 0.5 28.6605C0.5 27.8868 1.25483 27.2602 2.18521 27.2602C2.38182 27.2602 2.5714 27.2882 2.74695 27.3407V23.3395C2.74695 23.0927 2.9102 22.8739 3.14719 22.8022L8.76455 21.1218C8.93483 21.0711 9.11915 21.1026 9.26134 21.2094Z" fill="#ECECEC"/>
</g>
<path d="M7.64395 0.652723C4.85209 2.55739 5.10736 5.46719 5.63415 6.38663C5.69711 6.49651 5.74604 6.54353 5.74604 6.41689C5.74604 6.20807 5.89148 6.14137 5.96419 6.13412H6.61864C7.03749 6.13412 8.17478 5.80059 8.69107 5.63383C9.7731 5.44241 12.1088 4.04596 13.1413 3.37166C13.2289 3.31612 13.3014 3.26329 13.3613 3.21404C13.5843 3.03064 13.4717 2.73731 13.2286 2.89313L10.4363 4.26348C9.79055 4.64631 8.30567 5.06104 7.64395 5.22055C6.3176 5.60338 5.82603 5.22055 5.74604 4.98128C5.55407 3.98941 6.10236 2.94388 6.40049 2.5451C7.18583 1.1356 8.85105 0.667218 9.58549 0.609214C13.39 0.382998 14.3266 3.42967 14.3193 4.98128C14.267 7.41746 12.1887 8.66455 11.1562 8.98357C9.86472 9.45341 8.10206 8.6428 7.38217 8.17876C6.94448 7.82627 6.56033 8.26822 6.94398 8.67887C7.36175 9.12603 8.00595 9.43607 8.59493 9.63025C9.15122 9.81365 9.65689 10.1611 9.92551 10.6816C10.3442 11.4929 11.2941 11.8732 12.16 11.5841C12.6098 11.434 13.016 11.3012 13.2068 11.2457C13.3346 11.2086 13.4346 11.1853 13.5119 11.1717C13.6738 11.1434 13.7569 11.2857 13.5995 11.3327L11.0718 12.3329C10.9539 12.3795 10.9028 12.5183 10.9622 12.6303C11.0112 12.7224 11.1197 12.7655 11.2184 12.7319L13.0977 12.094C13.1759 12.068 13.243 12.0508 13.3002 12.0403C13.5114 12.0016 13.5614 12.2166 13.3595 12.2898L11.8526 12.9031C11.5151 13.0404 11.3705 13.4396 11.5417 13.7613C11.6839 14.0286 11.9997 14.1526 12.2858 14.0533L13.7958 13.5297C13.8638 13.5054 13.9256 13.4854 13.9817 13.469C14.3045 13.3746 14.4204 13.6411 14.1012 13.7472C12.9454 14.2176 12.4305 15.569 12.9803 16.6892L19.2812 29.5267C19.4305 29.8308 19.7472 30.1283 20.0753 30.0437C20.2029 30.0108 20.2788 29.99 20.3964 29.9304L20.4047 29.9262C20.6949 29.7745 20.6813 29.393 20.5849 29.0801L18.5078 22.339L14.2321 9.50561C14.1954 9.38475 14.1515 9.26819 14.1039 9.15792C13.8707 8.61834 13.8551 7.95549 14.2321 7.50446C14.952 6.39514 15.8289 3.63269 13.5776 1.45753C11.3263 -0.717626 8.6838 0.014677 7.64395 0.652723Z" fill="#ECECEC"/>
<ellipse cx="9.35811" cy="1.73993" rx="0.17452" ry="0.174013" fill="#ECECEC"/>
<ellipse cx="9.05245" cy="2.30536" rx="0.17452" ry="0.174013" fill="#ECECEC"/>
<ellipse cx="9.79366" cy="2.43573" rx="0.17452" ry="0.174013" fill="#ECECEC"/>
<ellipse cx="9.88058" cy="1.04364" rx="0.17452" ry="0.174013" fill="#ECECEC"/>
<ellipse cx="10.3181" cy="1.43573" rx="0.17452" ry="0.174013" fill="#ECECEC"/>
<ellipse cx="11.1023" cy="1.30536" rx="0.17452" ry="0.174013" fill="#ECECEC"/>
<ellipse cx="11.2341" cy="1.87079" rx="0.17452" ry="0.174013" fill="#ECECEC"/>
<ellipse cx="11.9314" cy="1.9577" rx="0.17452" ry="0.174013" fill="#ECECEC"/>
<ellipse cx="10.5349" cy="2.13153" rx="0.17452" ry="0.174013" fill="#ECECEC"/>
<ellipse cx="10.4919" cy="2.82782" rx="0.17452" ry="0.174013" fill="#ECECEC"/>
<ellipse cx="11.321" cy="2.65399" rx="0.17452" ry="0.174013" fill="#ECECEC"/>
<ellipse cx="12.0183" cy="2.74091" rx="0.17452" ry="0.174013" fill="#ECECEC"/>
<ellipse cx="11.2341" cy="3.34979" rx="0.17452" ry="0.174013" fill="#ECECEC"/>
<ellipse cx="10.361" cy="3.56708" rx="0.17452" ry="0.174013" fill="#ECECEC"/>
<ellipse cx="9.53194" cy="3.04511" rx="0.17452" ry="0.174013" fill="#ECECEC"/>
<ellipse cx="9.70675" cy="3.82831" rx="0.17452" ry="0.174013" fill="#ECECEC"/>
<ellipse cx="10.405" cy="5.43768" rx="0.17452" ry="0.174013" fill="#ECECEC"/>
<ellipse cx="11.1462" cy="5.13349" rx="0.17452" ry="0.174013" fill="#ECECEC"/>
<ellipse cx="11.8884" cy="4.78534" rx="0.17452" ry="0.174013" fill="#ECECEC"/>
<ellipse cx="12.5427" cy="4.30683" rx="0.17452" ry="0.174013" fill="#ECECEC"/>
<ellipse cx="13.153" cy="4.00214" rx="0.17452" ry="0.174013" fill="#ECECEC"/>
<ellipse cx="13.7644" cy="4.4372" rx="0.17452" ry="0.174013" fill="#ECECEC"/>
<ellipse cx="13.153" cy="4.78534" rx="0.17452" ry="0.174013" fill="#ECECEC"/>
<ellipse cx="13.5896" cy="5.39423" rx="0.17452" ry="0.174013" fill="#ECECEC"/>
<ellipse cx="12.8483" cy="5.61151" rx="0.17452" ry="0.174013" fill="#ECECEC"/>
<ellipse cx="12.1501" cy="5.43768" rx="0.17452" ry="0.174013" fill="#ECECEC"/>
<ellipse cx="11.2771" cy="5.74188" rx="0.17452" ry="0.174013" fill="#ECECEC"/>
<ellipse cx="11.6696" cy="6.13397" rx="0.17452" ry="0.174013" fill="#ECECEC"/>
<ellipse cx="12.5857" cy="6.35126" rx="0.17452" ry="0.174013" fill="#ECECEC"/>
<ellipse cx="13.24" cy="6.22089" rx="0.17452" ry="0.174013" fill="#ECECEC"/>
<ellipse cx="12.5857" cy="7.09149" rx="0.17452" ry="0.174013" fill="#ECECEC"/>
<ellipse cx="11.8884" cy="6.82977" rx="0.17452" ry="0.174013" fill="#ECECEC"/>
<ellipse cx="10.7536" cy="6.43866" rx="0.17452" ry="0.174013" fill="#ECECEC"/>
<ellipse cx="10.1423" cy="6.22089" rx="0.17452" ry="0.174013" fill="#ECECEC"/>
<ellipse cx="10.448" cy="7.0036" rx="0.17452" ry="0.174013" fill="#ECECEC"/>
<ellipse cx="11.1901" cy="7.13495" rx="0.17452" ry="0.174013" fill="#ECECEC"/>
<ellipse cx="11.8884" cy="7.65643" rx="0.17452" ry="0.174013" fill="#ECECEC"/>
<ellipse cx="10.8855" cy="7.78729" rx="0.17452" ry="0.174013" fill="#ECECEC"/>
<ellipse cx="10.9284" cy="8.65692" rx="0.17452" ry="0.174013" fill="#ECECEC"/>
<ellipse cx="11.6696" cy="8.30878" rx="0.17452" ry="0.174013" fill="#ECECEC"/>
<ellipse cx="8.74679" cy="1.52265" rx="0.17452" ry="0.174013" fill="#ECECEC"/>
<g clip-path="url(#clip1_124_117)">
<path d="M24.3091 2.42356V2.79696C24.3087 2.97076 24.2676 3.14206 24.1893 3.29732C24.1133 3.45392 24.0017 3.59072 23.8635 3.69686C23.7255 3.80194 23.5655 3.87468 23.3954 3.9097C23.2243 3.94227 23.0481 3.93845 22.8786 3.8985L21.2907 3.45042V6.51978C21.2917 6.9316 21.1502 7.33113 20.8899 7.65093C20.6297 7.97073 20.2668 8.1912 19.8624 8.27511C19.4581 8.35902 19.0371 8.30124 18.6705 8.11151C18.3039 7.92179 18.0143 7.61174 17.8504 7.23374C17.6865 6.85573 17.6585 6.43291 17.771 6.03668C17.8835 5.64045 18.1298 5.29508 18.4681 5.05888C18.8064 4.82268 19.2161 4.71013 19.628 4.74022C20.04 4.77032 20.4288 4.94123 20.729 5.22408V0.918752C20.7251 0.894013 20.7251 0.868811 20.729 0.844071V0.814199C20.7471 0.772723 20.775 0.73617 20.8101 0.70759C20.8453 0.67901 20.8868 0.659231 20.9312 0.649902H21.096L23.4553 1.31829C23.696 1.38288 23.9082 1.52543 24.0587 1.72349C24.2092 1.92155 24.2894 2.16388 24.2867 2.41236L24.3091 2.42356Z" fill="#ECECEC"/>
</g>
<g clip-path="url(#clip2_124_117)">
<path d="M9.19081 16.9497V17.1009C9.19061 17.1713 9.174 17.2407 9.14228 17.3035C9.1115 17.367 9.06632 17.4224 9.01034 17.4653C8.95444 17.5079 8.88965 17.5374 8.82077 17.5515C8.75147 17.5647 8.68015 17.5632 8.61149 17.547L7.96847 17.3655V18.6085C7.96887 18.7753 7.91154 18.9371 7.80616 19.0666C7.70078 19.1961 7.55381 19.2854 7.39007 19.3194C7.22632 19.3533 7.05583 19.3299 6.90738 19.2531C6.75893 19.1763 6.64162 19.0507 6.57526 18.8976C6.50889 18.7446 6.49754 18.5733 6.54311 18.4129C6.58869 18.2524 6.6884 18.1126 6.82541 18.0169C6.96242 17.9213 7.12833 17.8757 7.29514 17.8879C7.46195 17.9001 7.61943 17.9693 7.74099 18.0838V16.3403C7.7394 16.3303 7.7394 16.3201 7.74099 16.3101V16.298C7.74833 16.2812 7.7596 16.2664 7.77384 16.2548C7.78809 16.2432 7.8049 16.2352 7.82288 16.2314H7.88961L8.84504 16.5021C8.94249 16.5283 9.02845 16.586 9.0894 16.6662C9.15035 16.7464 9.18282 16.8445 9.18171 16.9452L9.19081 16.9497Z" fill="#ECECEC"/>
<ellipse cx="8.39132" cy="19.1183" rx="0.17452" ry="0.174013" fill="#ECECEC"/>
</g>
<path d="M20.691 11.8531C20.6913 11.9041 20.6758 11.954 20.6465 11.9958C20.6172 12.0377 20.5757 12.0695 20.5275 12.0868L19.7185 12.3849L19.4205 13.1922C19.4028 13.24 19.3709 13.2813 19.329 13.3104C19.2871 13.3396 19.2372 13.3552 19.1861 13.3552C19.135 13.3552 19.0852 13.3396 19.0433 13.3104C19.0013 13.2813 18.9694 13.24 18.9518 13.1922L18.6519 12.3849L17.8422 12.0877C17.7942 12.0701 17.7528 12.0383 17.7236 11.9965C17.6944 11.9547 17.6787 11.905 17.6787 11.8541C17.6787 11.8031 17.6944 11.7534 17.7236 11.7116C17.7528 11.6698 17.7942 11.638 17.8422 11.6204L18.6519 11.3214L18.9499 10.514C18.9675 10.4662 18.9995 10.425 19.0414 10.3958C19.0833 10.3667 19.1331 10.351 19.1842 10.351C19.2353 10.351 19.2852 10.3667 19.3271 10.3958C19.369 10.425 19.4009 10.4662 19.4186 10.514L19.7185 11.3214L20.5282 11.6185C20.5763 11.636 20.6179 11.668 20.647 11.71C20.6762 11.752 20.6916 11.802 20.691 11.8531ZM19.8126 10.3517H20.0636V10.6019C20.0636 10.6351 20.0768 10.6669 20.1003 10.6904C20.1239 10.7139 20.1558 10.727 20.1891 10.727C20.2223 10.727 20.2542 10.7139 20.2778 10.6904C20.3013 10.6669 20.3145 10.6351 20.3145 10.6019V10.3517H20.5655C20.5988 10.3517 20.6307 10.3385 20.6542 10.315C20.6778 10.2916 20.691 10.2597 20.691 10.2266C20.691 10.1934 20.6778 10.1615 20.6542 10.1381C20.6307 10.1146 20.5988 10.1014 20.5655 10.1014H20.3145V9.85119C20.3145 9.81801 20.3013 9.78619 20.2778 9.76272C20.2542 9.73926 20.2223 9.72607 20.1891 9.72607C20.1558 9.72607 20.1239 9.73926 20.1003 9.76272C20.0768 9.78619 20.0636 9.81801 20.0636 9.85119V10.1014H19.8126C19.7793 10.1014 19.7474 10.1146 19.7239 10.1381C19.7003 10.1615 19.6871 10.1934 19.6871 10.2266C19.6871 10.2597 19.7003 10.2916 19.7239 10.315C19.7474 10.3385 19.7793 10.3517 19.8126 10.3517ZM21.1929 10.8522H21.0674V10.727C21.0674 10.6939 21.0542 10.662 21.0307 10.6386C21.0072 10.6151 20.9752 10.6019 20.942 10.6019C20.9087 10.6019 20.8768 10.6151 20.8532 10.6386C20.8297 10.662 20.8165 10.6939 20.8165 10.727V10.8522H20.691C20.6577 10.8522 20.6258 10.8653 20.6023 10.8888C20.5787 10.9123 20.5655 10.9441 20.5655 10.9773C20.5655 11.0105 20.5787 11.0423 20.6023 11.0657C20.6258 11.0892 20.6577 11.1024 20.691 11.1024H20.8165V11.2275C20.8165 11.2607 20.8297 11.2925 20.8532 11.316C20.8768 11.3395 20.9087 11.3526 20.942 11.3526C20.9752 11.3526 21.0072 11.3395 21.0307 11.316C21.0542 11.2925 21.0674 11.2607 21.0674 11.2275V11.1024H21.1929C21.2262 11.1024 21.2581 11.0892 21.2817 11.0657C21.3052 11.0423 21.3184 11.0105 21.3184 10.9773C21.3184 10.9441 21.3052 10.9123 21.2817 10.8888C21.2581 10.8653 21.2262 10.8522 21.1929 10.8522Z" fill="#ECECEC"/>
<path d="M15.0865 26.8053C15.0868 26.8563 15.0713 26.9061 15.042 26.948C15.0127 26.9898 14.9712 27.0216 14.9231 27.0389L14.114 27.337L13.816 28.1444C13.7983 28.1922 13.7664 28.2334 13.7245 28.2626C13.6826 28.2917 13.6327 28.3073 13.5816 28.3073C13.5305 28.3073 13.4807 28.2917 13.4388 28.2626C13.3969 28.2334 13.3649 28.1922 13.3473 28.1444L13.0474 27.337L12.2377 27.0399C12.1897 27.0223 12.1483 26.9904 12.1191 26.9486C12.0899 26.9069 12.0742 26.8571 12.0742 26.8062C12.0742 26.7553 12.0899 26.7055 12.1191 26.6638C12.1483 26.622 12.1897 26.5901 12.2377 26.5725L13.0474 26.2735L13.3454 25.4662C13.363 25.4184 13.395 25.3771 13.4369 25.348C13.4788 25.3188 13.5286 25.3032 13.5797 25.3032C13.6308 25.3032 13.6807 25.3188 13.7226 25.348C13.7645 25.3771 13.7964 25.4184 13.8141 25.4662L14.114 26.2735L14.9237 26.5707C14.9718 26.5882 15.0134 26.6201 15.0425 26.6621C15.0717 26.7042 15.0871 26.7542 15.0865 26.8053ZM14.2081 25.3038H14.4591V25.5541C14.4591 25.5872 14.4723 25.6191 14.4958 25.6425C14.5194 25.666 14.5513 25.6792 14.5846 25.6792C14.6178 25.6792 14.6498 25.666 14.6733 25.6425C14.6968 25.6191 14.71 25.5872 14.71 25.5541V25.3038H14.961C14.9943 25.3038 15.0262 25.2906 15.0497 25.2672C15.0733 25.2437 15.0865 25.2119 15.0865 25.1787C15.0865 25.1455 15.0733 25.1137 15.0497 25.0902C15.0262 25.0668 14.9943 25.0536 14.961 25.0536H14.71V24.8033C14.71 24.7702 14.6968 24.7383 14.6733 24.7149C14.6498 24.6914 14.6178 24.6782 14.5846 24.6782C14.5513 24.6782 14.5194 24.6914 14.4958 24.7149C14.4723 24.7383 14.4591 24.7702 14.4591 24.8033V25.0536H14.2081C14.1748 25.0536 14.1429 25.0668 14.1194 25.0902C14.0958 25.1137 14.0826 25.1455 14.0826 25.1787C14.0826 25.2119 14.0958 25.2437 14.1194 25.2672C14.1429 25.2906 14.1748 25.3038 14.2081 25.3038ZM15.5884 25.8043H15.463V25.6792C15.463 25.646 15.4497 25.6142 15.4262 25.5907C15.4027 25.5672 15.3708 25.5541 15.3375 25.5541C15.3042 25.5541 15.2723 25.5672 15.2487 25.5907C15.2252 25.6142 15.212 25.646 15.212 25.6792V25.8043H15.0865C15.0532 25.8043 15.0213 25.8175 14.9978 25.841C14.9742 25.8644 14.961 25.8962 14.961 25.9294C14.961 25.9626 14.9742 25.9944 14.9978 26.0179C15.0213 26.0414 15.0532 26.0545 15.0865 26.0545H15.212V26.1797C15.212 26.2128 15.2252 26.2447 15.2487 26.2681C15.2723 26.2916 15.3042 26.3048 15.3375 26.3048C15.3708 26.3048 15.4027 26.2916 15.4262 26.2681C15.4497 26.2447 15.463 26.2128 15.463 26.1797V26.0545H15.5884C15.6217 26.0545 15.6536 26.0414 15.6772 26.0179C15.7007 25.9944 15.7139 25.9626 15.7139 25.9294C15.7139 25.8962 15.7007 25.8644 15.6772 25.841C15.6536 25.8175 15.6217 25.8043 15.5884 25.8043Z" fill="#ECECEC"/>
<defs>
<clipPath id="clip0_124_117">
<rect width="8.98779" height="8.96165" fill="white" transform="translate(0.5 21.0991)"/>
</clipPath>
<clipPath id="clip1_124_117">
<rect width="8.98779" height="8.96165" fill="white" transform="translate(16.5127)"/>
</clipPath>
<clipPath id="clip2_124_117">
<rect width="3.63971" height="3.62912" fill="white" transform="translate(6.0332 15.9683)"/>
</clipPath>
</defs>
</svg>
