<svg width="20" height="20" viewBox="0 0 20 20" fill="none" xmlns="http://www.w3.org/2000/svg">
<path d="M8.9992 14.006C9.55115 14.006 9.99911 14.4376 9.99911 14.995L9.99911 19.011C9.99911 19.4965 9.63314 19.9001 9.17518 19.984L8.9992 20C8.44725 20 7.99929 19.5684 7.99929 19.011L7.99929 14.995C8.00171 14.7623 8.08534 14.5378 8.23576 14.3602C8.38618 14.1825 8.59395 14.0629 8.82321 14.022L8.9992 14.006ZM1.99982 18.981C1.99982 19.4805 1.63386 19.8981 1.1759 19.984L0.999913 20C0.447963 20 2.96038e-06 19.5445 2.98501e-06 18.981L3.76928e-06 1.03896C-0.00069431 0.802175 0.0811672 0.572538 0.231523 0.389503C0.38188 0.206468 0.591345 0.0814621 0.823929 0.035963L0.999914 0.0199792C1.55186 0.0199792 1.99982 0.475524 1.99982 1.03896L1.99982 9.00499L17.5824 9.00499L13.4628 4.88911C13.3673 4.79696 13.2911 4.68672 13.2387 4.56484C13.1863 4.44296 13.1587 4.31187 13.1576 4.17922C13.1564 4.04657 13.1817 3.91503 13.232 3.79225C13.2823 3.66948 13.3565 3.55794 13.4504 3.46414C13.5443 3.37034 13.6559 3.29616 13.7788 3.24593C13.9017 3.1957 14.0334 3.17042 14.1661 3.17158C14.2989 3.17273 14.4301 3.20029 14.5521 3.25265C14.6741 3.305 14.7844 3.38111 14.8767 3.47652L19.1183 7.71229C19.4101 8.003 19.6389 8.35067 19.7903 8.73362C19.9416 9.11657 20.0124 9.52657 19.9982 9.93806L19.9982 10.004C19.9982 10.0839 19.9889 10.1625 19.9702 10.2398C19.8842 10.8671 19.6002 11.4705 19.1183 11.952L14.8787 16.1918C14.6909 16.3794 14.4363 16.4848 14.1707 16.4848C13.9052 16.4848 13.6506 16.3794 13.4628 16.1918C13.275 16.0042 13.1696 15.7498 13.1696 15.4845C13.1696 15.2192 13.275 14.9648 13.4628 14.7772L17.2425 11.003L1.99982 11.003L1.99982 18.981ZM8.9992 -4.8086e-07C9.55115 -4.56734e-07 9.99911 0.431568 9.99911 0.98901L9.99911 5.00499C9.99911 5.49051 9.63314 5.89411 9.17518 5.97802L8.9992 5.99401C8.44725 5.99401 7.99929 5.56244 7.99929 5.00499L7.99929 0.98901C8.00171 0.756341 8.08535 0.531814 8.23577 0.354173C8.38618 0.176533 8.59395 0.0569228 8.82321 0.0159833L8.9992 -4.8086e-07Z" fill="#ECECEC"/>
</svg>
